<svg enable-background="new 0 0 210 42" version="1.1" viewBox="0 0 130 42" xmlns="http://www.w3.org/2000/svg">
    <g transform="translate(-.4465)">
        <g>
            <g>
                <path class="gray" d="m27.909 3h-3.455l1.633 2.535h-22.181v4.018h28.196l-1.909-2.85z" fill="#194c75" />
                <g>
                    <path class="dblue" d="m8.099 39h3.455l-1.633-2.535h22.181v-4.018h-28.196l1.909 2.85z" fill="#808184" />
                </g>
                <g>
                    <path class="gray" d="m3.906 19.047h21.081v4.018h-21.081z" fill="#194c75" />
                </g>
            </g>
        </g>
        <g fill="#194c75" stroke-width="1.2363" aria-label="IMS">
            <path d="m40.844 3.6923h5.7857v34.615h-5.7857z" />
            <path d="m55.135 3.6923h5.2418l13.154 16.764 13.154-16.764h5.1923v34.615h-5.7363v-24.824l-12.016 15.231h-1.2363l-11.967-15.181v24.775h-5.7857z" />
            <path d="m112.84 39q-3.956 0-7.7637-1.2363-3.8077-1.2857-6.8242-3.6099l3.0165-4.3517q2.1758 1.8297 5.2418 2.8681 3.1154 1.0385 6.3297 1.0385 3.7582 0 6.033-1.3846 2.2747-1.4341 2.2747-3.7582 0-2.1264-2.0769-3.3626-2.0769-1.2363-6.5769-1.8297-7.0714-.98901-10.236-3.4615-3.1648-2.4725-3.1648-7.022 0-2.8681 1.6813-5.0934 1.7308-2.2747 4.7472-3.511 3.0659-1.2857 6.9725-1.2857 3.4615 0 6.8242 1.1374t5.9835 3.1648l-2.9176 4.1044q-2.1264-1.6319-4.6978-2.4725t-5.1429-.84066q-3.4121 0-5.5879 1.3846-2.1758 1.3352-2.1758 3.4615 0 2.0769 1.978 3.3132 1.978 1.2363 6.3297 1.8791 7.3681 1.0879 10.632 3.511 3.2637 2.3736 3.2637 6.7747 0 3.1648-1.7802 5.5879-1.7308 2.3736-4.9451 3.7088-3.2143 1.2857-7.4176 1.2857z" />
        </g>
    </g>
</svg>