<?xml version="1.0" standalone="no"?>
<!DOCTYPE svg PUBLIC "-//W3C//DTD SVG 20010904//EN"
 "http://www.w3.org/TR/2001/REC-SVG-20010904/DTD/svg10.dtd">
<svg version="1.0" xmlns="http://www.w3.org/2000/svg"
 width="700.000000pt" height="700.000000pt" viewBox="0 0 700.000000 700.000000"
 preserveAspectRatio="xMidYMid meet">
<metadata>
Created by potrace 1.14, written by Peter Selinger 2001-2017
</metadata>
<g transform="translate(0.000000,700.000000) scale(0.100000,-0.100000)"
fill="#000000" stroke="none">
<path d="M4580 6496 c0 -3 59 -95 130 -206 72 -111 129 -204 126 -208 -2 -4
-833 -7 -1845 -6 l-1841 1 0 -334 0 -333 2349 0 2349 0 -175 263 c-97 144
-189 285 -205 312 -16 28 -93 154 -172 280 l-142 230 -287 3 c-158 1 -287 0
-287 -2z"/>
<path d="M1152 3490 l3 -335 1755 0 1754 0 1 329 c0 208 -4 330 -10 334 -5 4
-796 7 -1758 7 l-1747 1 2 -336z"/>
<path d="M1160 1587 c0 -5 53 -87 118 -183 64 -97 124 -186 132 -198 33 -52
215 -342 322 -516 l115 -185 286 -3 c158 -1 287 0 287 2 0 3 -53 87 -118 188
-144 221 -146 225 -129 230 6 2 837 3 1845 3 l1832 -1 0 333 0 333 -217 0
c-2828 5 -4473 3 -4473 -3z"/>
</g>
</svg>
